HIERARCHY
ROOT Hips
{
	OFFSET 0.000000 8.830580 0.000000
	CHANNELS 6 Xposition Yposition Zposition Zrotation Yrotation Xrotation 
	JOINT Spine
	{
		OFFSET 0.000000 0.010000 0.000000
		CHANNELS 3 Zrotation Yrotation Xrotation
		JOINT Spine1
		{
			OFFSET 0.000000 2.459130 0.000000
			CHANNELS 3 Zrotation Yrotation Xrotation
			JOINT Neck
			{
				OFFSET 0.000000 2.484630 0.000000
				CHANNELS 3 Zrotation Yrotation Xrotation
				JOINT Head_virtual
				{
					OFFSET 0.000000 0.000000 0.000000
					CHANNELS 3 Zrotation Yrotation Xrotation
					JOINT Head
					{
						OFFSET 0.000000 0.927525 0.000000
						CHANNELS 3 Zrotation Yrotation Xrotation
						End Site
						{
							OFFSET 0.000000 0.000000 0.000000
						}
					}
				}
				JOINT LeftUpArm_virtual
				{
					OFFSET 0.000000 0.000000 0.000000
					CHANNELS 3 Zrotation Yrotation Xrotation
					JOINT LeftUpArm
					{
						OFFSET 1.248820 0.000000 0.000000
						CHANNELS 3 Zrotation Yrotation Xrotation
						JOINT LeftForeArm
						{
							OFFSET 2.597580 0.000000 0.000000
							CHANNELS 3 Zrotation Yrotation Xrotation
							JOINT LeftHand
							{
								OFFSET 2.455420 0.000000 0.000000
								CHANNELS 3 Zrotation Yrotation Xrotation
								End Site
								{
									OFFSET 0.000000 0.000000 0.000000
								}
							}
						}
					}
				}
				JOINT RightUpArm_virtual
				{
					OFFSET -0.000000 -0.000000 -0.000000
					CHANNELS 3 Zrotation Yrotation Xrotation
					JOINT RightUpArm
					{
						OFFSET -1.248820 -0.000000 -0.000000
						CHANNELS 3 Zrotation Yrotation Xrotation
						JOINT RightForeArm
						{
							OFFSET -2.597580 -0.000000 -0.000000
							CHANNELS 3 Zrotation Yrotation Xrotation
							JOINT RightHand
							{
								OFFSET -2.455420 -0.000000 -0.000000
								CHANNELS 3 Zrotation Yrotation Xrotation
								End Site
								{
									OFFSET 0.000000 0.000000 0.000000
								}
							}
						}
					}
				}
			}
		}
	}
	JOINT LeftUpLeg
	{
		OFFSET 1.271939 0.000000 0.000000
		CHANNELS 3 Zrotation Yrotation Xrotation
		JOINT LeftLowLeg
		{
			OFFSET 0.000000 -4.342910 0.000000
			CHANNELS 3 Zrotation Yrotation Xrotation
			JOINT LeftFoot
			{
				OFFSET 0.000000 -4.487670 0.000000
				CHANNELS 3 Zrotation Yrotation Xrotation
				JOINT LeftToeBase
				{
					OFFSET 0.000000 0.000000 1.515070
					CHANNELS 3 Zrotation Yrotation Xrotation
					End Site
					{
						OFFSET 0.000000 0.000000 0.000000
					}
				}
			}
		}
	}
	JOINT RightUpLeg
	{
		OFFSET -1.271939 0.000000 0.000000
		CHANNELS 3 Zrotation Yrotation Xrotation
		JOINT RightLowLeg
		{
			OFFSET 0.000000 -4.342910 0.000000
			CHANNELS 3 Zrotation Yrotation Xrotation
			JOINT RightFoot
			{
				OFFSET 0.000000 -4.487670 0.000000
				CHANNELS 3 Zrotation Yrotation Xrotation
				JOINT RightToeBase
				{
					OFFSET 0.000000 0.000000 1.515070
					CHANNELS 3 Zrotation Yrotation Xrotation
					End Site
					{
						OFFSET 0.000000 0.000000 0.000000
					}
				}
			}
		}
	}
}
MOTION
Frames: 14
Frame Time: 0.041667
-14.467462 8.896026 29.821285 177.857626 -1.652588 179.291745 3.922149 0.336484 -18.141824 -7.836936 3.324017 20.128926 0.000000 0.000000 0.000000 13.978348 -2.487607 14.130852 1.240162 -4.831597 -85.185786 -25.371300 1.111920 7.149994 -45.683201 -5.669260 27.048401 0.000000 -17.961201 0.000000 8.860520 15.201500 -5.573530 32.249901 -5.228490 3.415985 46.632099 4.455410 13.345001 0.000000 22.151800 0.000000 4.730700 -9.280550 -14.994700 -6.260077 -17.879697 -1.299271 0.000000 0.000000 16.118799 -18.265533 11.111516 -6.880794 0.000000 0.000000 -17.287140 3.226291 19.225812 -0.957549 0.000000 0.000000 21.042999 28.037077 -6.558916 -13.434964 0.000000 0.000000 -17.611300 
-14.465571 8.896175 29.829230 177.846100 -1.760766 179.143352 3.941937 0.295183 -18.010947 -7.827401 3.269275 20.141397 0.000000 0.000000 0.000000 14.139394 -2.875043 13.770485 1.159260 -4.898094 -85.388200 -25.386801 1.222160 7.300995 -45.693001 -5.865100 26.806801 0.000000 -18.401899 0.000000 9.048430 15.243900 -6.147390 32.282299 -5.190890 3.420990 46.826401 4.440990 11.799988 0.000000 21.727200 0.000000 4.878230 -8.719760 -15.094100 -6.292449 -18.004202 -1.216064 0.000000 0.000000 16.152800 -18.279996 11.131273 -6.850781 0.000000 0.000000 -17.281560 3.264110 19.114956 -0.848465 0.000000 0.000000 21.057501 28.119294 -6.534086 -13.418374 0.000000 0.000000 -17.683940 
-14.469162 8.894419 29.841989 177.722292 -1.623858 179.156512 3.988213 0.474064 -17.827831 -7.897152 3.291311 19.900108 0.000000 0.000000 0.000000 14.145496 -3.114470 13.465809 1.258343 -5.028817 -85.580795 -25.466299 1.371490 7.278015 -45.616001 -5.902340 27.288799 0.000000 -18.782101 0.000000 9.817240 14.954800 -6.400910 32.299599 -5.242690 3.394012 47.118198 4.328740 9.506989 0.000000 21.332800 0.000000 5.331310 -8.623460 -16.380899 -6.428492 -17.983582 -1.313848 0.000000 0.000000 16.179899 -18.312329 11.267485 -6.837091 0.000000 0.000000 -17.256900 3.069239 18.910883 -0.868509 0.000000 0.000000 20.850100 28.351318 -6.199800 -13.469449 0.000000 0.000000 -17.848680 
-14.467268 8.896514 29.849429 177.807086 -1.667296 179.364446 4.117265 0.543750 -18.063141 -7.896998 3.277885 19.932490 0.000000 0.000000 0.000000 14.302837 -3.463867 13.162392 1.146997 -5.082087 -85.855569 -25.499901 1.445190 7.154999 -45.609001 -5.941710 27.149700 0.000000 -19.005199 0.000000 10.269200 14.897000 -6.265520 32.398800 -5.337720 3.269989 47.398499 4.217660 7.285004 0.000000 20.937700 0.000000 5.615590 -8.565660 -18.046600 -6.242854 -17.994535 -1.588509 0.000000 0.000000 16.177700 -18.305386 11.219438 -6.791994 0.000000 0.000000 -17.249860 3.017056 18.532997 -1.120632 0.000000 0.000000 20.746901 27.891218 -6.180494 -13.139325 0.000000 0.000000 -18.009210 
-14.459474 8.897519 29.846698 177.815161 -2.041796 179.003548 3.880874 0.080861 -17.982618 -7.415079 3.287728 20.179955 0.000000 0.000000 0.000000 14.183123 -3.591215 12.807137 1.017539 -5.213302 -85.989256 -25.661301 1.522790 7.062988 -45.553398 -5.929560 27.268101 0.000000 -19.321699 0.000000 10.965900 14.818200 -5.671470 32.220299 -5.393100 3.097992 47.782200 4.076370 5.220001 0.000000 20.491800 0.000000 5.899160 -8.672650 -20.498301 -6.288852 -18.229207 -1.209668 0.000000 0.000000 16.160101 -18.327197 11.093567 -6.716157 0.000000 0.000000 -17.298570 3.510929 20.449227 -0.948959 0.000000 0.000000 21.603600 28.321882 -7.821468 -14.019857 0.000000 0.000000 -17.967440 
-14.456462 8.898832 29.847575 177.837592 -1.996688 178.767202 3.868343 0.055139 -17.906808 -7.199787 3.364974 20.279497 0.000000 0.000000 0.000000 14.144945 -3.759706 12.495757 1.013720 -5.322443 -86.081960 -25.770599 1.535570 7.076996 -45.451900 -5.925180 27.255100 0.000000 -19.560900 0.000000 11.259600 14.754900 -5.595710 32.112000 -5.468480 3.049011 48.173801 4.171910 2.782990 0.000000 19.802000 0.000000 6.020010 -8.713840 -21.614700 -6.321150 -18.125795 -0.922546 0.000000 0.000000 16.065599 -18.357106 11.070706 -6.685055 0.000000 0.000000 -17.299140 3.662894 20.675432 -0.713859 0.000000 0.000000 21.648100 28.576291 -7.840102 -14.041303 0.000000 0.000000 -17.674180 
-14.454353 8.899301 29.853460 177.858493 -2.005100 178.728544 3.910519 0.099677 -17.887628 -7.155461 3.376918 20.245890 0.000000 0.000000 0.000000 14.089235 -3.785810 12.286168 1.007490 -5.355206 -86.227333 -25.785700 1.508900 7.054993 -45.412300 -5.911850 27.347601 0.000000 -19.572500 0.000000 11.623600 14.569500 -5.216080 32.169998 -5.556260 3.006989 48.276299 4.097710 1.282013 0.000000 19.483999 0.000000 6.413820 -9.698060 -24.363800 -6.288324 -18.087757 -0.932456 0.000000 0.000000 16.079100 -18.378663 11.042764 -6.667904 0.000000 0.000000 -17.291680 3.672919 20.458619 -0.669389 0.000000 0.000000 21.500700 28.459166 -7.809405 -13.921782 0.000000 0.000000 -17.702700 
-14.451436 8.898354 29.860910 177.841699 -2.082438 178.724208 3.910516 0.083166 -17.845219 -7.153511 3.339699 20.141485 0.000000 0.000000 0.000000 14.015328 -3.764756 12.053401 1.027261 -5.366032 -86.330145 -25.771799 1.502610 7.059998 -45.320999 -5.878660 27.627501 0.000000 -19.658701 0.000000 11.860800 14.524600 -4.577950 32.228199 -5.625770 2.954987 48.245201 4.014200 0.593994 0.000000 19.301201 0.000000 6.373940 -9.275530 -24.444000 -6.275348 -18.190270 -1.025651 0.000000 0.000000 16.171600 -18.424791 11.037384 -6.682049 0.000000 0.000000 -17.292520 3.629849 20.165171 -0.686053 0.000000 0.000000 21.435301 28.368746 -7.671219 -13.870080 0.000000 0.000000 -17.981890 
-14.448500 8.898178 29.865738 177.828430 -2.036720 178.731479 3.918926 0.121370 -17.862741 -7.143536 3.358261 20.082167 0.000000 0.000000 0.000000 14.023084 -3.785854 11.871029 0.913051 -5.331284 -86.443209 -25.738899 1.453910 7.053986 -45.320900 -5.866790 27.695299 0.000000 -19.494200 0.000000 11.775900 14.354400 -4.125310 32.244202 -5.672200 2.950989 48.196899 3.981860 0.334015 0.000000 19.037300 0.000000 6.103100 -8.903260 -23.608700 -6.254052 -18.110085 -1.064374 0.000000 0.000000 16.167801 -18.399585 11.022082 -6.650313 0.000000 0.000000 -17.314690 3.592947 20.005805 -0.729844 0.000000 0.000000 21.384001 28.325510 -7.555694 -13.797638 0.000000 0.000000 -17.985120 
-14.445000 8.898081 29.871103 177.824218 -2.053724 178.693999 3.903132 0.053748 -17.878209 -7.093815 3.337461 20.108073 0.000000 0.000000 0.000000 13.917422 -3.691472 11.608181 0.893897 -5.302705 -86.455031 -25.745600 1.417370 7.018005 -45.288300 -5.853840 27.932301 0.000000 -19.351999 0.000000 11.678900 14.272000 -3.771490 32.297600 -5.618110 3.036011 47.974602 3.809770 0.716003 0.000000 19.258101 0.000000 5.768870 -8.983580 -23.501900 -6.235854 -18.118925 -1.093373 0.000000 0.000000 16.230101 -18.417389 11.005320 -6.644226 0.000000 0.000000 -17.308700 3.605649 19.957545 -0.745476 0.000000 0.000000 21.441200 28.317224 -7.506730 -13.778286 0.000000 0.000000 -17.963340 
-14.441273 8.897742 29.877182 177.813998 -2.118413 178.639014 3.885148 -0.018483 -17.838101 -7.091575 3.285797 20.094756 0.000000 0.000000 0.000000 13.860162 -3.577818 11.478996 0.935926 -5.246603 -86.544756 -25.715799 1.341350 6.984985 -45.287800 -5.813440 28.192400 0.000000 -19.185101 0.000000 11.539000 14.302700 -3.679720 32.338902 -5.556700 3.088989 47.686798 3.829310 1.628998 0.000000 19.110201 0.000000 5.529930 -8.877510 -22.957500 -6.219903 -18.088834 -1.110428 0.000000 0.000000 16.277901 -18.447438 10.914009 -6.611301 0.000000 0.000000 -17.327750 3.611308 19.817776 -0.739934 0.000000 0.000000 21.466400 28.304119 -7.447403 -13.754279 0.000000 0.000000 -17.976840 
-14.437897 8.897294 29.882288 177.813854 -2.021909 178.587320 3.897634 0.002478 -17.813299 -7.089594 3.288377 20.074272 0.000000 0.000000 0.000000 13.751248 -3.422311 11.323220 1.040605 -5.204012 -86.504702 -25.718201 1.280040 7.041992 -45.238400 -5.820550 28.470301 0.000000 -19.109501 0.000000 11.307400 14.484600 -3.812940 32.350101 -5.439310 3.213989 47.433498 3.772860 2.480011 0.000000 19.078300 0.000000 5.357690 -8.809580 -21.811501 -6.217773 -18.077829 -1.108633 0.000000 0.000000 16.337200 -18.522884 10.972092 -6.673225 0.000000 0.000000 -17.280030 3.615090 19.809329 -0.775015 0.000000 0.000000 21.539301 28.275137 -7.354312 -13.703301 0.000000 0.000000 -17.991840 
-14.434335 8.897526 29.886158 177.839524 -2.058209 178.572974 3.925175 -0.028727 -17.857602 -7.134305 3.226428 20.058156 0.000000 0.000000 0.000000 13.759988 -3.342219 11.303723 1.032986 -5.129975 -86.511874 -25.688299 1.197070 7.089996 -45.239201 -5.793320 28.654800 0.000000 -18.986401 0.000000 11.138700 14.548100 -4.176560 32.366501 -5.322070 3.319000 47.180099 3.725870 3.507996 0.000000 18.962799 0.000000 5.361480 -8.558600 -21.035200 -6.176717 -18.185585 -1.147946 0.000000 0.000000 16.398001 -18.582487 11.015981 -6.715393 0.000000 0.000000 -17.260340 3.627055 19.579511 -0.759565 0.000000 0.000000 21.476000 28.392313 -7.136123 -13.591478 0.000000 0.000000 -17.856920 
-14.430968 8.897817 29.889743 177.855509 -2.053814 178.542664 3.923960 -0.055962 -17.857909 -7.119503 3.206476 20.041618 0.000000 0.000000 0.000000 13.756056 -3.293703 11.277771 1.120619 -5.099806 -86.476130 -25.696400 1.137820 7.118988 -45.234402 -5.785780 28.731300 0.000000 -18.913099 0.000000 10.989900 14.595800 -4.380650 32.341499 -5.240920 3.397003 47.010799 3.766390 4.393005 0.000000 18.770000 0.000000 5.403920 -8.589800 -21.009600 -6.142679 -18.208499 -1.163436 0.000000 0.000000 16.442900 -18.622444 11.017029 -6.726422 0.000000 0.000000 -17.261630 3.648726 19.510774 -0.745461 0.000000 0.000000 21.447201 28.496999 -7.015928 -13.527191 0.000000 0.000000 -17.927480 
